<?xml version="1.0" encoding="UTF-8"?>
<svg width="138px" height="63px" viewBox="0 0 138 63" version="1.1" xmlns="http://www.w3.org/2000/svg" xmlns:xlink="http://www.w3.org/1999/xlink">
    <!-- Generator: Sketch 41.2 (35397) - http://www.bohemiancoding.com/sketch -->
    <title>Untitled 3</title>
    <desc>Created with Sketch.</desc>
    <defs></defs>
    <g id="Page-1" stroke="none" stroke-width="1" fill="none" fill-rule="evenodd">
        <path d="M11.55,11.45 C11.55,11.8833355 11.7083318,12.2583318 12.025,12.575 C12.3416682,12.8916683 12.7749973,13.1749987 13.325,13.425 C13.8750028,13.6750012 14.516663,13.9083323 15.25,14.125 C15.983337,14.3416677 16.749996,14.583332 17.55,14.85 C18.6500055,15.2166685 19.7833275,15.633331 20.95,16.1 C22.1166725,16.566669 23.1749952,17.2083293 24.125,18.025 C25.0750048,18.8416707 25.849997,19.8749937 26.45,21.125 C27.050003,22.3750063 27.35,23.9833235 27.35,25.95 C27.35,29.7833525 26.0666795,32.69999 23.5,34.7 C20.9333205,36.70001 17.283357,37.7 12.55,37.7 C10.8499915,37.7 9.2833405,37.5833345 7.85,37.35 C6.4166595,37.1166655 5.1833385,36.8500015 4.15,36.55 C2.9166605,36.216665 1.8166715,35.8333355 0.85,35.4 L3.05,27.1 C3.850004,27.433335 4.7333285,27.733332 5.7,28 C6.5333375,28.2333345 7.47499475,28.4416657 8.525,28.625 C9.57500525,28.8083343 10.699994,28.9 11.9,28.9 C13.23334,28.9 14.2916628,28.7416682 15.075,28.425 C15.8583372,28.1083317 16.25,27.61667 16.25,26.95 C16.25,26.483331 16.0666685,26.1083347 15.7,25.825 C15.3333315,25.5416652 14.850003,25.2916677 14.25,25.075 C13.649997,24.8583322 12.9416708,24.6333345 12.125,24.4 C11.3083292,24.1666655 10.4500045,23.9000015 9.55,23.6 C8.483328,23.2333315 7.40833875,22.750003 6.325,22.15 C5.24166125,21.549997 4.266671,20.7916712 3.4,19.875 C2.533329,18.9583288 1.833336,17.8583398 1.3,16.575 C0.766664,15.2916603 0.5,13.8000085 0.5,12.1 C0.5,8.233314 1.80832025,5.3833425 4.425,3.55 C7.04167975,1.7166575 10.6333105,0.8 15.2,0.8 C16.9000085,0.8 18.41666,0.90833225 19.75,1.125 C21.08334,1.34166775 22.2333285,1.583332 23.2,1.85 C24.3000055,2.1500015 25.283329,2.499998 26.15,2.9 L23.95,10.9 C23.28333,10.6666655 22.5333375,10.450001 21.7,10.25 C20.9333295,10.0833325 20.0666715,9.933334 19.1,9.8 C18.1333285,9.666666 17.0666725,9.6 15.9,9.6 C14.1333245,9.6 12.9666695,9.7833315 12.4,10.15 C11.8333305,10.5166685 11.55,10.9499975 11.55,11.45 Z M43.7,27.25 L41.65,27.25 C41.0166635,27.25 40.4166695,27.2333335 39.85,27.2 L39.85,37 L28.75,37 L28.75,2.25 C29.0500015,2.1499995 29.5916628,2.0166675 30.375,1.85 C31.1583372,1.6833325 32.1249942,1.52500075 33.275,1.375 C34.4250058,1.22499925 35.7416592,1.09166725 37.225,0.975 C38.7083407,0.85833275 40.316658,0.8 42.05,0.8 C44.8833475,0.8 47.29999,1.0833305 49.3,1.65 C51.30001,2.2166695 52.9416602,3.05832775 54.225,4.175 C55.5083398,5.29167225 56.4416637,6.6666585 57.025,8.3 C57.6083362,9.9333415 57.9,11.816656 57.9,13.95 C57.9,18.150021 56.6500125,21.416655 54.15,23.75 C51.6499875,26.083345 48.166689,27.25 43.7,27.25 Z M42.5,9.55 C42.033331,9.55 41.5833355,9.55833325 41.15,9.575 C40.7166645,9.59166675 40.2833355,9.6166665 39.85,9.65 L39.85,18.4 C40.0833345,18.4333335 40.3916648,18.45 40.775,18.45 L42.2,18.45 C43.1000045,18.45 43.8416638,18.3250013 44.425,18.075 C45.0083363,17.8249988 45.4749982,17.4916688 45.825,17.075 C46.1750017,16.6583313 46.4249992,16.1750027 46.575,15.625 C46.7250007,15.0749973 46.8,14.500003 46.8,13.9 C46.8,12.7333275 46.4833365,11.716671 45.85,10.85 C45.2166635,9.983329 44.100008,9.55 42.5,9.55 Z M69.9,21.2 C70.833338,21.2 71.766662,21.2499995 72.7,21.35 L72.7,19.2 C72.7,18.4999965 72.3166705,17.9916682 71.55,17.675 C70.7833295,17.3583317 69.7833395,17.2 68.55,17.2 C67.616662,17.2 66.716671,17.2749993 65.85,17.425 C64.983329,17.5750008 64.21667,17.7333325 63.55,17.9 C62.749996,18.100001 62.01667,18.333332 61.35,18.6 L59.45,10.85 C60.316671,10.449998 61.316661,10.083335 62.45,9.75 C63.4833385,9.4499985 64.66666,9.19166775 66,8.975 C67.33334,8.75833225 68.866658,8.65 70.6,8.65 C72.3666755,8.65 74.0333255,8.816665 75.6,9.15 C77.1666745,9.483335 78.5333275,10.0666625 79.7,10.9 C80.8666725,11.7333375 81.7916632,12.849993 82.475,14.25 C83.1583367,15.650007 83.5,17.416656 83.5,19.55 L83.5,35.1 C82.5333285,35.6000025 81.38334,36.0333315 80.05,36.4 C78.849994,36.7666685 77.4666745,37.0749988 75.9,37.325 C74.3333255,37.5750013 72.5000105,37.7 70.4,37.7 C66.066645,37.7 62.9500095,37.0083403 61.05,35.625 C59.1499905,34.2416597 58.2,32.183347 58.2,29.45 C58.2,28.316661 58.3749982,27.250005 58.725,26.25 C59.0750018,25.249995 59.6916623,24.3750038 60.575,23.625 C61.4583377,22.8749962 62.6583258,22.2833355 64.175,21.85 C65.6916743,21.4166645 67.5999885,21.2 69.9,21.2 Z M71.1,31.55 C71.3333345,31.55 71.5416657,31.5333335 71.725,31.5 C71.9083342,31.4666665 72.0833325,31.4333335 72.25,31.4 C72.4166675,31.3666665 72.566666,31.3333335 72.7,31.3 L72.7,27.45 C72.433332,27.4166665 72.166668,27.3916668 71.9,27.375 C71.633332,27.3583332 71.400001,27.35 71.2,27.35 C70.53333,27.35 70.0250018,27.4999985 69.675,27.8 C69.3249983,28.1000015 69.15,28.649996 69.15,29.45 C69.15,30.316671 69.3333315,30.883332 69.7,31.15 C70.0666685,31.416668 70.5333305,31.55 71.1,31.55 Z M96.5,21.2 C97.433338,21.2 98.366662,21.2499995 99.3,21.35 L99.3,19.2 C99.3,18.4999965 98.9166705,17.9916682 98.15,17.675 C97.3833295,17.3583317 96.3833395,17.2 95.15,17.2 C94.216662,17.2 93.316671,17.2749993 92.45,17.425 C91.583329,17.5750008 90.81667,17.7333325 90.15,17.9 C89.349996,18.100001 88.61667,18.333332 87.95,18.6 L86.05,10.85 C86.916671,10.449998 87.916661,10.083335 89.05,9.75 C90.0833385,9.4499985 91.26666,9.19166775 92.6,8.975 C93.93334,8.75833225 95.466658,8.65 97.2,8.65 C98.9666755,8.65 100.633325,8.816665 102.2,9.15 C103.766675,9.483335 105.133328,10.0666625 106.3,10.9 C107.466672,11.7333375 108.391663,12.849993 109.075,14.25 C109.758337,15.650007 110.1,17.416656 110.1,19.55 L110.1,35.1 C109.133329,35.6000025 107.98334,36.0333315 106.65,36.4 C105.449994,36.7666685 104.066674,37.0749988 102.5,37.325 C100.933326,37.5750013 99.1000105,37.7 97,37.7 C92.666645,37.7 89.5500095,37.0083403 87.65,35.625 C85.7499905,34.2416597 84.8,32.183347 84.8,29.45 C84.8,28.316661 84.9749982,27.250005 85.325,26.25 C85.6750017,25.249995 86.2916623,24.3750038 87.175,23.625 C88.0583377,22.8749962 89.2583257,22.2833355 90.775,21.85 C92.2916743,21.4166645 94.1999885,21.2 96.5,21.2 Z M97.7,31.55 C97.9333345,31.55 98.1416658,31.5333335 98.325,31.5 C98.5083342,31.4666665 98.6833325,31.4333335 98.85,31.4 C99.0166675,31.3666665 99.166666,31.3333335 99.3,31.3 L99.3,27.45 C99.033332,27.4166665 98.766668,27.3916668 98.5,27.375 C98.233332,27.3583332 98.000001,27.35 97.8,27.35 C97.13333,27.35 96.6250018,27.4999985 96.275,27.8 C95.9249982,28.1000015 95.75,28.649996 95.75,29.45 C95.75,30.316671 95.9333315,30.883332 96.3,31.15 C96.6666685,31.416668 97.1333305,31.55 97.7,31.55 Z M122.15,11.45 C122.15,11.8833355 122.308332,12.2583318 122.625,12.575 C122.941668,12.8916683 123.374997,13.1749987 123.925,13.425 C124.475003,13.6750012 125.116663,13.9083323 125.85,14.125 C126.583337,14.3416677 127.349996,14.583332 128.15,14.85 C129.250006,15.2166685 130.383328,15.633331 131.55,16.1 C132.716673,16.566669 133.774995,17.2083293 134.725,18.025 C135.675005,18.8416707 136.449997,19.8749937 137.05,21.125 C137.650003,22.3750063 137.95,23.9833235 137.95,25.95 C137.95,29.7833525 136.666679,32.69999 134.1,34.7 C131.533321,36.70001 127.883357,37.7 123.15,37.7 C121.449992,37.7 119.883341,37.5833345 118.45,37.35 C117.01666,37.1166655 115.783339,36.8500015 114.75,36.55 C113.516661,36.216665 112.416672,35.8333355 111.45,35.4 L113.65,27.1 C114.450004,27.433335 115.333328,27.733332 116.3,28 C117.133337,28.2333345 118.074995,28.4416657 119.125,28.625 C120.175005,28.8083343 121.299994,28.9 122.5,28.9 C123.83334,28.9 124.891663,28.7416682 125.675,28.425 C126.458337,28.1083317 126.85,27.61667 126.85,26.95 C126.85,26.483331 126.666669,26.1083347 126.3,25.825 C125.933332,25.5416652 125.450003,25.2916677 124.85,25.075 C124.249997,24.8583322 123.541671,24.6333345 122.725,24.4 C121.908329,24.1666655 121.050005,23.9000015 120.15,23.6 C119.083328,23.2333315 118.008339,22.750003 116.925,22.15 C115.841661,21.549997 114.866671,20.7916712 114,19.875 C113.133329,18.9583288 112.433336,17.8583398 111.9,16.575 C111.366664,15.2916603 111.1,13.8000085 111.1,12.1 C111.1,8.233314 112.40832,5.3833425 115.025,3.55 C117.64168,1.7166575 121.233311,0.8 125.8,0.8 C127.500008,0.8 129.01666,0.90833225 130.35,1.125 C131.68334,1.34166775 132.833328,1.583332 133.8,1.85 C134.900006,2.1500015 135.883329,2.499998 136.75,2.9 L134.55,10.9 C133.88333,10.6666655 133.133338,10.450001 132.3,10.25 C131.53333,10.0833325 130.666672,9.933334 129.7,9.8 C128.733328,9.666666 127.666673,9.6 126.5,9.6 C124.733324,9.6 123.566669,9.7833315 123,10.15 C122.433331,10.5166685 122.15,10.9499975 122.15,11.45 Z" id="SPaaS" fill="#F6A623"></path>
        <path d="M3.008,58.644 C3.19200092,58.7400005 3.40799876,58.8279996 3.656,58.908 C3.88000112,58.9800004 4.13599856,59.0419997 4.424,59.094 C4.71200144,59.1460003 5.04399812,59.172 5.42,59.172 C6.0600032,59.172 6.54399836,59.0560012 6.872,58.824 C7.20000164,58.5919988 7.364,58.2480023 7.364,57.792 C7.364,57.5359987 7.31600048,57.3240008 7.22,57.156 C7.12399952,56.9879992 6.99400082,56.8440006 6.83,56.724 C6.66599918,56.6039994 6.47600108,56.5040004 6.26,56.424 C6.04399892,56.3439996 5.8160012,56.2720003 5.576,56.208 C5.28799856,56.1279996 4.97800166,56.0340005 4.646,55.926 C4.31399834,55.8179995 4.00400144,55.6720009 3.716,55.488 C3.42799856,55.3039991 3.18800096,55.0660015 2.996,54.774 C2.80399904,54.4819985 2.708,54.1120022 2.708,53.664 C2.708,53.2959982 2.77999928,52.9700014 2.924,52.686 C3.06800072,52.4019986 3.27199868,52.164001 3.536,51.972 C3.80000132,51.779999 4.11599816,51.6360005 4.484,51.54 C4.85200184,51.4439995 5.25999776,51.396 5.708,51.396 C6.108002,51.396 6.46199846,51.4219997 6.77,51.474 C7.07800154,51.5260003 7.33599896,51.5839997 7.544,51.648 C7.79200124,51.7280004 8.00799908,51.8159995 8.192,51.912 L7.832,52.776 C7.6719992,52.6959996 7.48400108,52.6240003 7.268,52.56 C7.07599904,52.5039997 6.85200128,52.4540002 6.596,52.41 C6.33999872,52.3659998 6.04000172,52.344 5.696,52.344 C5.11999712,52.344 4.66600166,52.441999 4.334,52.638 C4.00199834,52.834001 3.836,53.1559978 3.836,53.604 C3.836,53.8280011 3.87999956,54.0139993 3.968,54.162 C4.05600044,54.3100007 4.18799912,54.4379995 4.364,54.546 C4.54000088,54.6540005 4.75999868,54.7539995 5.024,54.846 C5.28800132,54.9380005 5.59199828,55.0399994 5.936,55.152 C6.2560016,55.2560005 6.56799848,55.3659994 6.872,55.482 C7.17600152,55.5980006 7.4479988,55.7499991 7.688,55.938 C7.9280012,56.1260009 8.11999928,56.3579986 8.264,56.634 C8.40800072,56.9100014 8.48,57.2599979 8.48,57.684 C8.48,58.5000041 8.20800272,59.109998 7.664,59.514 C7.11999728,59.918002 6.3680048,60.12 5.408,60.12 C4.97599784,60.12 4.5900017,60.0920003 4.25,60.036 C3.9099983,59.9799997 3.62400116,59.9160004 3.392,59.844 C3.11999864,59.7719996 2.88000104,59.6840005 2.672,59.58 L3.008,58.644 Z M10.112,60 L10.112,53.676 L11.228,53.676 L11.228,60 L10.112,60 Z M11.36,51.972 C11.36,52.1560009 11.3060005,52.3099994 11.198,52.434 C11.0899995,52.5580006 10.9120012,52.62 10.664,52.62 C10.4159988,52.62 10.2400005,52.5580006 10.136,52.434 C10.0319995,52.3099994 9.98,52.1560009 9.98,51.972 C9.98,51.7879991 10.0319995,51.6340006 10.136,51.51 C10.2400005,51.3859994 10.4159988,51.324 10.664,51.324 C10.9120012,51.324 11.0899995,51.3859994 11.198,51.51 C11.3060005,51.6340006 11.36,51.7879991 11.36,51.972 Z M17.384,60 L17.264,59.244 C17.1199993,59.4040008 16.948001,59.5479994 16.748,59.676 C16.5639991,59.7960006 16.3480012,59.8999996 16.1,59.988 C15.8519988,60.0760004 15.5560017,60.12 15.212,60.12 C14.8519982,60.12 14.5220015,60.0500007 14.222,59.91 C13.9219985,59.7699993 13.6620011,59.5640014 13.442,59.292 C13.2219989,59.0199986 13.0520006,58.688002 12.932,58.296 C12.8119994,57.903998 12.752,57.4520026 12.752,56.94 C12.752,55.8279944 13.0339972,54.9860029 13.598,54.414 C14.1620028,53.8419971 14.9279952,53.556 15.896,53.556 C16.0720009,53.556 16.2379992,53.5679999 16.394,53.592 C16.5500008,53.6160001 16.6879994,53.6439998 16.808,53.676 C16.9520007,53.7080002 17.0839994,53.7479998 17.204,53.796 L17.192,53.424 L17.192,51.228 L18.308,51.228 L18.308,60 L17.384,60 Z M17.192,54.696 C17.0799994,54.6559998 16.9600006,54.6160002 16.832,54.576 C16.7119994,54.5519999 16.5760008,54.5280001 16.424,54.504 C16.2719992,54.4799999 16.1040009,54.468 15.92,54.468 C15.2559967,54.468 14.7480018,54.665998 14.396,55.062 C14.0439982,55.458002 13.868,56.059996 13.868,56.868 C13.868,57.6440039 14.0159985,58.2259981 14.312,58.614 C14.6080015,59.0020019 14.9999976,59.196 15.488,59.196 C15.7440013,59.196 15.975999,59.1540004 16.184,59.07 C16.392001,58.9859996 16.5719992,58.8880006 16.724,58.776 C16.9000009,58.6559994 17.0559993,58.5200008 17.192,58.368 L17.192,54.696 Z M25.016,59.676 C24.8399991,59.7560004 24.6440011,59.8279997 24.428,59.892 C24.227999,59.9560003 24.0000013,60.0099998 23.744,60.054 C23.4879987,60.0980002 23.2000016,60.12 22.88,60.12 C22.3439973,60.12 21.8840019,60.0440008 21.5,59.892 C21.1159981,59.7399992 20.8000012,59.5220014 20.552,59.238 C20.3039988,58.9539986 20.1220006,58.616002 20.006,58.224 C19.8899994,57.831998 19.832,57.3960024 19.832,56.916 C19.832,56.4119975 19.8939994,55.9520021 20.018,55.536 C20.1420006,55.1199979 20.3259988,54.7660015 20.57,54.474 C20.8140012,54.1819985 21.1179982,53.9560008 21.482,53.796 C21.8460018,53.6359992 22.2639976,53.556 22.736,53.556 C23.1680022,53.556 23.5439984,53.6219993 23.864,53.754 C24.1840016,53.8860007 24.4499989,54.0679988 24.662,54.3 C24.8740011,54.5320012 25.0319995,54.8079984 25.136,55.128 C25.2400005,55.4480016 25.292,55.7959981 25.292,56.172 C25.292,56.2920006 25.288,56.4059995 25.28,56.514 C25.272,56.6220005 25.264,56.7159996 25.256,56.796 C25.2399999,56.8920005 25.2240001,56.9799996 25.208,57.06 L20.96,57.06 C20.968,57.468002 21.0219995,57.8099986 21.122,58.086 C21.2220005,58.3620014 21.3639991,58.5839992 21.548,58.752 C21.7320009,58.9200008 21.9499987,59.0399996 22.202,59.112 C22.4540013,59.1840004 22.7319985,59.22 23.036,59.22 C23.3000013,59.22 23.5399989,59.2000002 23.756,59.16 C23.9720011,59.1199998 24.1599992,59.0720003 24.32,59.016 C24.5040009,58.9599997 24.6679993,58.8960004 24.812,58.824 L25.016,59.676 Z M24.2,56.112 C24.2,55.5679973 24.0740013,55.1520014 23.822,54.864 C23.5699987,54.5759986 23.1920025,54.432 22.688,54.432 C22.2159976,54.432 21.8260015,54.5719986 21.518,54.852 C21.2099985,55.1320014 21.0280003,55.5919968 20.972,56.232 L24.2,56.232 L24.2,56.112 Z M29.468,60 L29.468,51.516 L32.708,51.516 C33.2840029,51.516 33.767998,51.5859993 34.16,51.726 C34.552002,51.8660007 34.8639988,52.0579988 35.096,52.302 C35.3280012,52.5460012 35.4939995,52.8299984 35.594,53.154 C35.6940005,53.4780016 35.744,53.8279981 35.744,54.204 C35.744,54.5720018 35.6940005,54.9199984 35.594,55.248 C35.4939995,55.5760016 35.3280012,55.8639988 35.096,56.112 C34.8639988,56.3600012 34.552002,56.5579993 34.16,56.706 C33.767998,56.8540007 33.2840029,56.928 32.708,56.928 L30.608,56.928 L30.608,60 L29.468,60 Z M32.672,55.956 C33.0560019,55.956 33.3719988,55.9120004 33.62,55.824 C33.8680012,55.7359996 34.0639993,55.6140008 34.208,55.458 C34.3520007,55.3019992 34.4539997,55.1180011 34.514,54.906 C34.5740003,54.6939989 34.604,54.4640012 34.604,54.216 C34.604,53.9679988 34.5740003,53.7380011 34.514,53.526 C34.4539997,53.3139989 34.3520007,53.1320008 34.208,52.98 C34.0639993,52.8279992 33.8680012,52.7080004 33.62,52.62 C33.3719988,52.5319996 33.0560019,52.488 32.672,52.488 L30.608,52.488 L30.608,55.956 L32.672,55.956 Z M38.24,53.676 L38.372,54.432 C38.572001,54.1999988 38.8499982,53.9980009 39.206,53.826 C39.5620018,53.6539991 40.0279971,53.568 40.604,53.568 L40.568,54.564 C40.5519999,54.564 40.5320001,54.56 40.508,54.552 L40.352,54.552 C39.8639976,54.552 39.4620016,54.6319992 39.146,54.792 C38.8299984,54.9520008 38.5960008,55.135999 38.444,55.344 L38.444,60 L37.328,60 L37.328,53.676 L38.24,53.676 Z M44.588,60.12 C44.1079976,60.12 43.6820019,60.0420008 43.31,59.886 C42.9379981,59.7299992 42.6260013,59.5100014 42.374,59.226 C42.1219987,58.9419986 41.9300007,58.596002 41.798,58.188 C41.6659993,57.779998 41.6,57.3240025 41.6,56.82 C41.6,56.3239975 41.6659993,55.876002 41.798,55.476 C41.9300007,55.075998 42.1219987,54.7340014 42.374,54.45 C42.6260013,54.1659986 42.9379981,53.9460008 43.31,53.79 C43.6820019,53.6339992 44.1079976,53.556 44.588,53.556 C45.0680024,53.556 45.4939981,53.6319992 45.866,53.784 C46.2380019,53.9360008 46.5499987,54.1539986 46.802,54.438 C47.0540013,54.7220014 47.2459993,55.065998 47.378,55.47 C47.5100007,55.874002 47.576,56.3239975 47.576,56.82 C47.576,57.3240025 47.5100007,57.777998 47.378,58.182 C47.2459993,58.586002 47.0540013,58.9319986 46.802,59.22 C46.5499987,59.5080014 46.2380019,59.7299992 45.866,59.886 C45.4939981,60.0420008 45.0680024,60.12 44.588,60.12 Z M44.588,59.208 C45.1640029,59.208 45.6199983,59.012002 45.956,58.62 C46.2920017,58.227998 46.46,57.636004 46.46,56.844 C46.46,56.043996 46.2920017,55.448002 45.956,55.056 C45.6199983,54.663998 45.1640029,54.468 44.588,54.468 C44.0119971,54.468 43.5560017,54.663998 43.22,55.056 C42.8839983,55.448002 42.716,56.043996 42.716,56.844 C42.716,57.636004 42.8839983,58.227998 43.22,58.62 C43.5560017,59.012002 44.0119971,59.208 44.588,59.208 Z M47.636,61.548 C47.6840002,61.5720001 47.7399997,61.5919999 47.804,61.608 C47.8600003,61.616 47.9239996,61.6259999 47.996,61.638 C48.0680004,61.6500001 48.1519995,61.656 48.248,61.656 C48.5840017,61.656 48.8419991,61.558001 49.022,61.362 C49.2020009,61.165999 49.292,60.8120026 49.292,60.3 L49.292,53.676 L50.396,53.676 L50.396,60.312 C50.396,61.120004 50.2140018,61.6979983 49.85,62.046 C49.4859982,62.3940017 49.0120029,62.568 48.428,62.568 C48.2999994,62.568 48.1820005,62.5620001 48.074,62.55 C47.9659995,62.5379999 47.8680004,62.5240001 47.78,62.508 C47.6839995,62.4919999 47.5960004,62.4720001 47.516,62.448 L47.636,61.548 Z M50.516,51.972 C50.516,52.180001 50.4600006,52.3399994 50.348,52.452 C50.2359994,52.5640006 50.0640012,52.62 49.832,52.62 C49.5839988,52.62 49.4080005,52.5620006 49.304,52.446 C49.1999995,52.3299994 49.148,52.176001 49.148,51.984 C49.148,51.791999 49.1999995,51.6360006 49.304,51.516 C49.4080005,51.3959994 49.5879987,51.336 49.844,51.336 C50.1000013,51.336 50.2759995,51.3959994 50.372,51.516 C50.4680005,51.6360006 50.516,51.7879991 50.516,51.972 Z M57.104,59.676 C56.9279991,59.7560004 56.7320011,59.8279997 56.516,59.892 C56.315999,59.9560003 56.0880013,60.0099998 55.832,60.054 C55.5759987,60.0980002 55.2880016,60.12 54.968,60.12 C54.4319973,60.12 53.9720019,60.0440008 53.588,59.892 C53.2039981,59.7399992 52.8880012,59.5220014 52.64,59.238 C52.3919988,58.9539986 52.2100006,58.616002 52.094,58.224 C51.9779994,57.831998 51.92,57.3960024 51.92,56.916 C51.92,56.4119975 51.9819994,55.9520021 52.106,55.536 C52.2300006,55.1199979 52.4139988,54.7660015 52.658,54.474 C52.9020012,54.1819985 53.2059982,53.9560008 53.57,53.796 C53.9340018,53.6359992 54.3519976,53.556 54.824,53.556 C55.2560022,53.556 55.6319984,53.6219993 55.952,53.754 C56.2720016,53.8860007 56.5379989,54.0679988 56.75,54.3 C56.9620011,54.5320012 57.1199995,54.8079984 57.224,55.128 C57.3280005,55.4480016 57.38,55.7959981 57.38,56.172 C57.38,56.2920006 57.376,56.4059995 57.368,56.514 C57.36,56.6220005 57.352,56.7159996 57.344,56.796 C57.3279999,56.8920005 57.3120001,56.9799996 57.296,57.06 L53.048,57.06 C53.056,57.468002 53.1099995,57.8099986 53.21,58.086 C53.3100005,58.3620014 53.4519991,58.5839992 53.636,58.752 C53.8200009,58.9200008 54.0379987,59.0399996 54.29,59.112 C54.5420013,59.1840004 54.8199985,59.22 55.124,59.22 C55.3880013,59.22 55.6279989,59.2000002 55.844,59.16 C56.0600011,59.1199998 56.2479992,59.0720003 56.408,59.016 C56.5920009,58.9599997 56.7559993,58.8960004 56.9,58.824 L57.104,59.676 Z M56.288,56.112 C56.288,55.5679973 56.1620013,55.1520014 55.91,54.864 C55.6579987,54.5759986 55.2800025,54.432 54.776,54.432 C54.3039976,54.432 53.9140015,54.5719986 53.606,54.852 C53.2979985,55.1320014 53.1160003,55.5919968 53.06,56.232 L56.288,56.232 L56.288,56.112 Z M63.224,54.744 C63.1119994,54.6959998 62.9880007,54.6520002 62.852,54.612 C62.7319994,54.5799998 62.5920008,54.5500001 62.432,54.522 C62.2719992,54.4939999 62.092001,54.48 61.892,54.48 C61.6119986,54.48 61.3440013,54.5179996 61.088,54.594 C60.8319987,54.6700004 60.608001,54.7999991 60.416,54.984 C60.223999,55.1680009 60.0700006,55.4099985 59.954,55.71 C59.8379994,56.0100015 59.78,56.3879977 59.78,56.844 C59.78,57.3000023 59.8379994,57.6779985 59.954,57.978 C60.0700006,58.2780015 60.223999,58.5179991 60.416,58.698 C60.608001,58.8780009 60.8319987,59.0059996 61.088,59.082 C61.3440013,59.1580004 61.6119986,59.196 61.892,59.196 C62.092001,59.196 62.2739992,59.1820001 62.438,59.154 C62.6020008,59.1259999 62.7399994,59.0960002 62.852,59.064 C62.9880007,59.0239998 63.1119994,58.9800002 63.224,58.932 L63.428,59.796 C63.2919993,59.8600003 63.1400008,59.9119998 62.972,59.952 C62.8119992,60.0000002 62.632001,60.0399998 62.432,60.072 C62.231999,60.1040002 62.0040013,60.12 61.748,60.12 C61.2999978,60.12 60.8880019,60.0560006 60.512,59.928 C60.1359981,59.7999994 59.8100014,59.6020013 59.534,59.334 C59.2579986,59.0659987 59.0440008,58.7260021 58.892,58.314 C58.7399992,57.9019979 58.664,57.4160028 58.664,56.856 C58.664,56.2879972 58.7399992,55.7980021 58.892,55.386 C59.0440008,54.9739979 59.2579986,54.6320014 59.534,54.36 C59.8100014,54.0879986 60.1379981,53.8860007 60.518,53.754 C60.8980019,53.6219993 61.3119978,53.556 61.76,53.556 C62.0160013,53.556 62.245999,53.5719998 62.45,53.604 C62.654001,53.6360002 62.8279993,53.6719998 62.972,53.712 C63.1400008,53.7600002 63.2919993,53.8159997 63.428,53.88 L63.224,54.744 Z M68.492,59.844 C68.3799994,59.8920002 68.2560007,59.9359998 68.12,59.976 C67.9919994,60.0160002 67.8480008,60.0499999 67.688,60.078 C67.5279992,60.1060001 67.348001,60.12 67.148,60.12 C66.5879972,60.12 66.1440016,59.9700015 65.816,59.67 C65.4879984,59.3699985 65.324,58.8800034 65.324,58.2 L65.324,54.588 L64.424,54.588 L64.424,53.676 L65.348,53.676 L65.48,51.96 L66.452,51.96 L66.452,53.676 L68.396,53.676 L68.36,54.588 L66.452,54.588 L66.452,58.212 C66.452,58.5160015 66.5359992,58.7559991 66.704,58.932 C66.8720008,59.1080009 67.1199984,59.196 67.448,59.196 C67.5840007,59.196 67.7059995,59.1840001 67.814,59.16 C67.9220005,59.1359999 68.0159996,59.1120001 68.096,59.088 C68.1920005,59.0559998 68.2759996,59.0200002 68.348,58.98 L68.492,59.844 Z M72.56,53.976 C72.760001,53.8959996 72.9799988,53.8240003 73.22,53.76 C73.4440011,53.7039997 73.6939986,53.6560002 73.97,53.616 C74.2460014,53.5759998 74.5519983,53.556 74.888,53.556 C75.2480018,53.556 75.5759985,53.5899997 75.872,53.658 C76.1680015,53.7260003 76.4239989,53.8439992 76.64,54.012 C76.8560011,54.1800008 77.0219994,54.4039986 77.138,54.684 C77.2540006,54.9640014 77.312,55.3159979 77.312,55.74 L77.312,60 L76.4,60 L76.304,59.304 C76.1519992,59.4560008 75.972001,59.5919994 75.764,59.712 C75.5799991,59.8240006 75.3580013,59.9199996 75.098,60 C74.8379987,60.0800004 74.5320018,60.12 74.18,60.12 C73.5559969,60.12 73.0640018,59.9640016 72.704,59.652 C72.3439982,59.3399984 72.164,58.9120027 72.164,58.368 C72.164,57.9919981 72.2419992,57.6780013 72.398,57.426 C72.5540008,57.1739987 72.7639987,56.9740007 73.028,56.826 C73.2920013,56.6779993 73.6019982,56.5740003 73.958,56.514 C74.3140018,56.4539997 74.691998,56.424 75.092,56.424 C75.3080011,56.424 75.513999,56.4299999 75.71,56.442 C75.906001,56.4540001 76.0639994,56.4679999 76.184,56.484 L76.184,55.812 C76.184,55.3799978 76.0780011,55.0500011 75.866,54.822 C75.6539989,54.5939989 75.252003,54.48 74.66,54.48 C74.3799986,54.48 74.1240012,54.5019998 73.892,54.546 C73.6599988,54.5900002 73.4600008,54.6359998 73.292,54.684 C73.083999,54.7400003 72.9000008,54.8079996 72.74,54.888 L72.56,53.976 Z M76.184,57.324 C76.0479993,57.3079999 75.8960008,57.2920001 75.728,57.276 C75.5599992,57.2599999 75.3640011,57.252 75.14,57.252 C74.8839987,57.252 74.6440011,57.2659999 74.42,57.294 C74.1959989,57.3220001 74.0000008,57.3759996 73.832,57.456 C73.6639992,57.5360004 73.5300005,57.6459993 73.43,57.786 C73.3299995,57.9260007 73.28,58.1039989 73.28,58.32 C73.28,58.520001 73.3199996,58.6819994 73.4,58.806 C73.4800004,58.9300006 73.5799994,59.0239997 73.7,59.088 C73.8200006,59.1520003 73.9459993,59.1939999 74.078,59.214 C74.2100007,59.2340001 74.3239995,59.244 74.42,59.244 C74.7000014,59.244 74.9479989,59.2020004 75.164,59.118 C75.3800011,59.0339996 75.5639992,58.9440005 75.716,58.848 C75.8920009,58.7279994 76.0479993,58.5960007 76.184,58.452 L76.184,57.324 Z M79.004,58.776 C79.1480007,58.8560004 79.315999,58.9279997 79.508,58.992 C79.6840009,59.0560003 79.8859989,59.1099998 80.114,59.154 C80.3420011,59.1980002 80.6039985,59.22 80.9,59.22 C81.8520048,59.22 82.328,58.920003 82.328,58.32 C82.328,58.1439991 82.2920004,58.0040005 82.22,57.9 C82.1479996,57.7959995 82.0480006,57.7100003 81.92,57.642 C81.7919994,57.5739997 81.6400009,57.5160002 81.464,57.468 C81.2879991,57.4199998 81.096001,57.3680003 80.888,57.312 C80.6399988,57.2399996 80.3880013,57.1600004 80.132,57.072 C79.8759987,56.9839996 79.648001,56.8660007 79.448,56.718 C79.247999,56.5699993 79.0840006,56.3880011 78.956,56.172 C78.8279994,55.9559989 78.764,55.6880016 78.764,55.368 C78.764,54.7839971 78.9799978,54.3360016 79.412,54.024 C79.8440022,53.7119984 80.455996,53.556 81.248,53.556 C81.5520015,53.556 81.8199988,53.5759998 82.052,53.616 C82.2840012,53.6560002 82.4799992,53.6999998 82.64,53.748 C82.8240009,53.8120003 82.9839993,53.8799996 83.12,53.952 L82.856,54.84 C82.7359994,54.7679996 82.5960008,54.7040003 82.436,54.648 C82.2839992,54.5999998 82.110001,54.5580002 81.914,54.522 C81.717999,54.4859998 81.4920013,54.468 81.236,54.468 C80.8039978,54.468 80.4620013,54.5359993 80.21,54.672 C79.9579987,54.8080007 79.832,55.0159986 79.832,55.296 C79.832,55.4480008 79.8699996,55.5759995 79.946,55.68 C80.0220004,55.7840005 80.1239994,55.8719996 80.252,55.944 C80.3800006,56.0160004 80.5319991,56.0759998 80.708,56.124 C80.8840009,56.1720002 81.067999,56.2199998 81.26,56.268 C81.5480014,56.3400004 81.8219987,56.4219995 82.082,56.514 C82.3420013,56.6060005 82.569999,56.7239993 82.766,56.868 C82.962001,57.0120007 83.1179994,57.1939989 83.234,57.414 C83.3500006,57.6340011 83.408,57.9079984 83.408,58.236 C83.408,58.8680032 83.1880022,59.3399984 82.748,59.652 C82.3079978,59.9640016 81.688004,60.12 80.888,60.12 C80.5519983,60.12 80.2540013,60.0980002 79.994,60.054 C79.7339987,60.0099998 79.5120009,59.9600003 79.328,59.904 C79.1119989,59.8399997 78.9240008,59.7680004 78.764,59.688 L79.004,58.776 Z M87.584,53.976 C87.784001,53.8959996 88.0039988,53.8240003 88.244,53.76 C88.4680011,53.7039997 88.7179986,53.6560002 88.994,53.616 C89.2700014,53.5759998 89.5759983,53.556 89.912,53.556 C90.2720018,53.556 90.5999985,53.5899997 90.896,53.658 C91.1920015,53.7260003 91.4479989,53.8439992 91.664,54.012 C91.8800011,54.1800008 92.0459994,54.4039986 92.162,54.684 C92.2780006,54.9640014 92.336,55.3159979 92.336,55.74 L92.336,60 L91.424,60 L91.328,59.304 C91.1759992,59.4560008 90.996001,59.5919994 90.788,59.712 C90.6039991,59.8240006 90.3820013,59.9199996 90.122,60 C89.8619987,60.0800004 89.5560018,60.12 89.204,60.12 C88.5799969,60.12 88.0880018,59.9640016 87.728,59.652 C87.3679982,59.3399984 87.188,58.9120027 87.188,58.368 C87.188,57.9919981 87.2659992,57.6780013 87.422,57.426 C87.5780008,57.1739987 87.7879987,56.9740007 88.052,56.826 C88.3160013,56.6779993 88.6259982,56.5740003 88.982,56.514 C89.3380018,56.4539997 89.715998,56.424 90.116,56.424 C90.3320011,56.424 90.537999,56.4299999 90.734,56.442 C90.930001,56.4540001 91.0879994,56.4679999 91.208,56.484 L91.208,55.812 C91.208,55.3799978 91.1020011,55.0500011 90.89,54.822 C90.6779989,54.5939989 90.276003,54.48 89.684,54.48 C89.4039986,54.48 89.1480012,54.5019998 88.916,54.546 C88.6839988,54.5900002 88.4840008,54.6359998 88.316,54.684 C88.107999,54.7400003 87.9240008,54.8079996 87.764,54.888 L87.584,53.976 Z M91.208,57.324 C91.0719993,57.3079999 90.9200008,57.2920001 90.752,57.276 C90.5839992,57.2599999 90.3880011,57.252 90.164,57.252 C89.9079987,57.252 89.6680011,57.2659999 89.444,57.294 C89.2199989,57.3220001 89.0240008,57.3759996 88.856,57.456 C88.6879992,57.5360004 88.5540005,57.6459993 88.454,57.786 C88.3539995,57.9260007 88.304,58.1039989 88.304,58.32 C88.304,58.520001 88.3439996,58.6819994 88.424,58.806 C88.5040004,58.9300006 88.6039994,59.0239997 88.724,59.088 C88.8440006,59.1520003 88.9699993,59.1939999 89.102,59.214 C89.2340007,59.2340001 89.3479995,59.244 89.444,59.244 C89.7240014,59.244 89.9719989,59.2020004 90.188,59.118 C90.4040011,59.0339996 90.5879992,58.9440005 90.74,58.848 C90.9160009,58.7279994 91.0719993,58.5960007 91.208,58.452 L91.208,57.324 Z M96.704,58.644 C96.8880009,58.7400005 97.1039988,58.8279996 97.352,58.908 C97.5760011,58.9800004 97.8319986,59.0419997 98.12,59.094 C98.4080014,59.1460003 98.7399981,59.172 99.116,59.172 C99.7560032,59.172 100.239998,59.0560012 100.568,58.824 C100.896002,58.5919988 101.06,58.2480023 101.06,57.792 C101.06,57.5359987 101.012,57.3240008 100.916,57.156 C100.82,56.9879992 100.690001,56.8440006 100.526,56.724 C100.361999,56.6039994 100.172001,56.5040004 99.956,56.424 C99.7399989,56.3439996 99.5120012,56.2720003 99.272,56.208 C98.9839986,56.1279996 98.6740017,56.0340005 98.342,55.926 C98.0099983,55.8179995 97.7000014,55.6720009 97.412,55.488 C97.1239986,55.3039991 96.884001,55.0660015 96.692,54.774 C96.499999,54.4819985 96.404,54.1120022 96.404,53.664 C96.404,53.2959982 96.4759993,52.9700014 96.62,52.686 C96.7640007,52.4019986 96.9679987,52.164001 97.232,51.972 C97.4960013,51.779999 97.8119982,51.6360005 98.18,51.54 C98.5480018,51.4439995 98.9559978,51.396 99.404,51.396 C99.804002,51.396 100.157998,51.4219997 100.466,51.474 C100.774002,51.5260003 101.031999,51.5839997 101.24,51.648 C101.488001,51.7280004 101.703999,51.8159995 101.888,51.912 L101.528,52.776 C101.367999,52.6959996 101.180001,52.6240003 100.964,52.56 C100.771999,52.5039997 100.548001,52.4540002 100.292,52.41 C100.035999,52.3659998 99.7360017,52.344 99.392,52.344 C98.8159971,52.344 98.3620017,52.441999 98.03,52.638 C97.6979983,52.834001 97.532,53.1559978 97.532,53.604 C97.532,53.8280011 97.5759996,54.0139993 97.664,54.162 C97.7520004,54.3100007 97.8839991,54.4379995 98.06,54.546 C98.2360009,54.6540005 98.4559987,54.7539995 98.72,54.846 C98.9840013,54.9380005 99.2879983,55.0399994 99.632,55.152 C99.9520016,55.2560005 100.263998,55.3659994 100.568,55.482 C100.872002,55.5980006 101.143999,55.7499991 101.384,55.938 C101.624001,56.1260009 101.815999,56.3579986 101.96,56.634 C102.104001,56.9100014 102.176,57.2599979 102.176,57.684 C102.176,58.5000041 101.904003,59.109998 101.36,59.514 C100.815997,59.918002 100.064005,60.12 99.104,60.12 C98.6719978,60.12 98.2860017,60.0920003 97.946,60.036 C97.6059983,59.9799997 97.3200012,59.9160004 97.088,59.844 C96.8159986,59.7719996 96.576001,59.6840005 96.368,59.58 L96.704,58.644 Z M108.692,59.676 C108.515999,59.7560004 108.320001,59.8279997 108.104,59.892 C107.903999,59.9560003 107.676001,60.0099998 107.42,60.054 C107.163999,60.0980002 106.876002,60.12 106.556,60.12 C106.019997,60.12 105.560002,60.0440008 105.176,59.892 C104.791998,59.7399992 104.476001,59.5220014 104.228,59.238 C103.979999,58.9539986 103.798001,58.616002 103.682,58.224 C103.565999,57.831998 103.508,57.3960024 103.508,56.916 C103.508,56.4119975 103.569999,55.9520021 103.694,55.536 C103.818001,55.1199979 104.001999,54.7660015 104.246,54.474 C104.490001,54.1819985 104.793998,53.9560008 105.158,53.796 C105.522002,53.6359992 105.939998,53.556 106.412,53.556 C106.844002,53.556 107.219998,53.6219993 107.54,53.754 C107.860002,53.8860007 108.125999,54.0679988 108.338,54.3 C108.550001,54.5320012 108.707999,54.8079984 108.812,55.128 C108.916001,55.4480016 108.968,55.7959981 108.968,56.172 C108.968,56.2920006 108.964,56.4059995 108.956,56.514 C108.948,56.6220005 108.94,56.7159996 108.932,56.796 C108.916,56.8920005 108.9,56.9799996 108.884,57.06 L104.636,57.06 C104.644,57.468002 104.697999,57.8099986 104.798,58.086 C104.898,58.3620014 105.039999,58.5839992 105.224,58.752 C105.408001,58.9200008 105.625999,59.0399996 105.878,59.112 C106.130001,59.1840004 106.407998,59.22 106.712,59.22 C106.976001,59.22 107.215999,59.2000002 107.432,59.16 C107.648001,59.1199998 107.835999,59.0720003 107.996,59.016 C108.180001,58.9599997 108.343999,58.8960004 108.488,58.824 L108.692,59.676 Z M107.876,56.112 C107.876,55.5679973 107.750001,55.1520014 107.498,54.864 C107.245999,54.5759986 106.868003,54.432 106.364,54.432 C105.891998,54.432 105.502002,54.5719986 105.194,54.852 C104.885998,55.1320014 104.704,55.5919968 104.648,56.232 L107.876,56.232 L107.876,56.112 Z M111.464,53.676 L111.596,54.432 C111.796001,54.1999988 112.073998,53.9980009 112.43,53.826 C112.786002,53.6539991 113.251997,53.568 113.828,53.568 L113.792,54.564 C113.776,54.564 113.756,54.56 113.732,54.552 L113.576,54.552 C113.087998,54.552 112.686002,54.6319992 112.37,54.792 C112.053998,54.9520008 111.820001,55.135999 111.668,55.344 L111.668,60 L110.552,60 L110.552,53.676 L111.464,53.676 Z M115.7,53.676 L117.26,58.032 L117.488,59.076 L117.716,58.032 L119.264,53.676 L120.404,53.676 L118.148,60 L116.816,60 L114.56,53.676 L115.7,53.676 Z M121.664,60 L121.664,53.676 L122.78,53.676 L122.78,60 L121.664,60 Z M122.912,51.972 C122.912,52.1560009 122.858001,52.3099994 122.75,52.434 C122.641999,52.5580006 122.464001,52.62 122.216,52.62 C121.967999,52.62 121.792001,52.5580006 121.688,52.434 C121.583999,52.3099994 121.532,52.1560009 121.532,51.972 C121.532,51.7879991 121.583999,51.6340006 121.688,51.51 C121.792001,51.3859994 121.967999,51.324 122.216,51.324 C122.464001,51.324 122.641999,51.3859994 122.75,51.51 C122.858001,51.6340006 122.912,51.7879991 122.912,51.972 Z M128.864,54.744 C128.751999,54.6959998 128.628001,54.6520002 128.492,54.612 C128.371999,54.5799998 128.232001,54.5500001 128.072,54.522 C127.911999,54.4939999 127.732001,54.48 127.532,54.48 C127.251999,54.48 126.984001,54.5179996 126.728,54.594 C126.471999,54.6700004 126.248001,54.7999991 126.056,54.984 C125.863999,55.1680009 125.710001,55.4099985 125.594,55.71 C125.477999,56.0100015 125.42,56.3879977 125.42,56.844 C125.42,57.3000023 125.477999,57.6779985 125.594,57.978 C125.710001,58.2780015 125.863999,58.5179991 126.056,58.698 C126.248001,58.8780009 126.471999,59.0059996 126.728,59.082 C126.984001,59.1580004 127.251999,59.196 127.532,59.196 C127.732001,59.196 127.913999,59.1820001 128.078,59.154 C128.242001,59.1259999 128.379999,59.0960002 128.492,59.064 C128.628001,59.0239998 128.751999,58.9800002 128.864,58.932 L129.068,59.796 C128.931999,59.8600003 128.780001,59.9119998 128.612,59.952 C128.451999,60.0000002 128.272001,60.0399998 128.072,60.072 C127.871999,60.1040002 127.644001,60.12 127.388,60.12 C126.939998,60.12 126.528002,60.0560006 126.152,59.928 C125.775998,59.7999994 125.450001,59.6020013 125.174,59.334 C124.897999,59.0659987 124.684001,58.7260021 124.532,58.314 C124.379999,57.9019979 124.304,57.4160028 124.304,56.856 C124.304,56.2879972 124.379999,55.7980021 124.532,55.386 C124.684001,54.9739979 124.897999,54.6320014 125.174,54.36 C125.450001,54.0879986 125.777998,53.8860007 126.158,53.754 C126.538002,53.6219993 126.951998,53.556 127.4,53.556 C127.656001,53.556 127.885999,53.5719998 128.09,53.604 C128.294001,53.6360002 128.467999,53.6719998 128.612,53.712 C128.780001,53.7600002 128.931999,53.8159997 129.068,53.88 L128.864,54.744 Z M135.524,59.676 C135.347999,59.7560004 135.152001,59.8279997 134.936,59.892 C134.735999,59.9560003 134.508001,60.0099998 134.252,60.054 C133.995999,60.0980002 133.708002,60.12 133.388,60.12 C132.851997,60.12 132.392002,60.0440008 132.008,59.892 C131.623998,59.7399992 131.308001,59.5220014 131.06,59.238 C130.811999,58.9539986 130.630001,58.616002 130.514,58.224 C130.397999,57.831998 130.34,57.3960024 130.34,56.916 C130.34,56.4119975 130.401999,55.9520021 130.526,55.536 C130.650001,55.1199979 130.833999,54.7660015 131.078,54.474 C131.322001,54.1819985 131.625998,53.9560008 131.99,53.796 C132.354002,53.6359992 132.771998,53.556 133.244,53.556 C133.676002,53.556 134.051998,53.6219993 134.372,53.754 C134.692002,53.8860007 134.957999,54.0679988 135.17,54.3 C135.382001,54.5320012 135.539999,54.8079984 135.644,55.128 C135.748001,55.4480016 135.8,55.7959981 135.8,56.172 C135.8,56.2920006 135.796,56.4059995 135.788,56.514 C135.78,56.6220005 135.772,56.7159996 135.764,56.796 C135.748,56.8920005 135.732,56.9799996 135.716,57.06 L131.468,57.06 C131.476,57.468002 131.529999,57.8099986 131.63,58.086 C131.73,58.3620014 131.871999,58.5839992 132.056,58.752 C132.240001,58.9200008 132.457999,59.0399996 132.71,59.112 C132.962001,59.1840004 133.239998,59.22 133.544,59.22 C133.808001,59.22 134.047999,59.2000002 134.264,59.16 C134.480001,59.1199998 134.667999,59.0720003 134.828,59.016 C135.012001,58.9599997 135.175999,58.8960004 135.32,58.824 L135.524,59.676 Z M134.708,56.112 C134.708,55.5679973 134.582001,55.1520014 134.33,54.864 C134.077999,54.5759986 133.700003,54.432 133.196,54.432 C132.723998,54.432 132.334002,54.5719986 132.026,54.852 C131.717998,55.1320014 131.536,55.5919968 131.48,56.232 L134.708,56.232 L134.708,56.112 Z" id="Side-Project-as-a-Se" fill="#4A4A4A"></path>
    </g>
</svg>